<?xml version="1.0" encoding="UTF-8" standalone="no"?>
<svg
   xmlns:dc="http://purl.org/dc/elements/1.1/"
   xmlns:cc="http://creativecommons.org/ns#"
   xmlns:rdf="http://www.w3.org/1999/02/22-rdf-syntax-ns#"
   xmlns:svg="http://www.w3.org/2000/svg"
   xmlns="http://www.w3.org/2000/svg"
   xmlns:sodipodi="http://sodipodi.sourceforge.net/DTD/sodipodi-0.dtd"
   xmlns:inkscape="http://www.inkscape.org/namespaces/inkscape"
   version="1.1"
   id="svg2"
   xml:space="preserve"
   width="1866.6667"
   height="1306.6667"
   viewBox="0 0 1866.6667 1306.6667"
   sodipodi:docname="Colonial.eps"><metadata
     id="metadata8"><rdf:RDF><cc:Work
         rdf:about=""><dc:format>image/svg+xml</dc:format><dc:type
           rdf:resource="http://purl.org/dc/dcmitype/StillImage" /></cc:Work></rdf:RDF></metadata><defs
     id="defs6" /><sodipodi:namedview
     pagecolor="#ffffff"
     bordercolor="#666666"
     borderopacity="1"
     objecttolerance="10"
     gridtolerance="10"
     guidetolerance="10"
     inkscape:pageopacity="0"
     inkscape:pageshadow="2"
     inkscape:window-width="640"
     inkscape:window-height="480"
     id="namedview4" /><g
     id="g10"
     inkscape:groupmode="layer"
     inkscape:label="ink_ext_XXXXXX"
     transform="matrix(1.3333333,0,0,-1.3333333,0,1306.6667)"><g
       id="g12"
       transform="scale(0.1)"><path
         d="M 14000,0 H 0 V 9800 H 14000 V 0"
         style="fill:#ffffff;fill-opacity:1;fill-rule:nonzero;stroke:none"
         id="path14" /><path
         d="m 10577.9,1347.19 c 588,762.41 937.8,1717.94 937.8,2755.2 0,2493.94 -2021.76,4515.68 -4515.7,4515.68 -2493.94,0 -4515.68,-2021.74 -4515.68,-4515.68 0,-1037.26 349.77,-1992.79 937.74,-2755.2 h 7155.84"
         style="fill:#97d4cd;fill-opacity:1;fill-rule:nonzero;stroke:none"
         id="path16" /><path
         d="m 10616.9,3548.38 -757.42,488.16 476.82,739.81 757.4,-488.16 -476.8,-739.81"
         style="fill:#7bc9c3;fill-opacity:1;fill-rule:nonzero;stroke:none"
         id="path18" /><path
         d="m 9157.84,4848.68 -1378.39,-2138.77 95.32,-61.43 1378.39,2138.77 -95.32,61.43"
         style="fill:#7bc9c3;fill-opacity:1;fill-rule:nonzero;stroke:none"
         id="path20" /><path
         d="m 10437.8,4195.57 c -43.2,-67.03 -132.6,-86.35 -199.6,-43.15 l -164.4,105.97 -820.64,528.86 -476.79,-739.81 1106.39,-713.05 370.84,575.39 v 0 l 184.2,285.79"
         style="fill:#7bc9c3;fill-opacity:1;fill-rule:nonzero;stroke:none"
         id="path22" /><path
         d="m 10394.6,4395.17 -274.9,177.18 -35.5,22.9 c -67.1,43.2 -86.38,132.56 -43.2,199.59 l -78.2,-121.37 -22.9,-35.54 -133.55,-207.21 431.85,-278.3 c 67,-43.2 156.4,-23.88 199.6,43.15 v 0 c 43.2,67.04 23.9,156.4 -43.2,199.6"
         style="fill:#58bab5;fill-opacity:1;fill-rule:nonzero;stroke:none"
         id="path24" /><path
         d="m 11093.7,4288.19 -853.1,549.8 c -67,43.21 -156.4,23.89 -199.6,-43.15 v 0 c -43.18,-67.03 -23.9,-156.39 43.2,-199.59 l 853.1,-549.81 156.4,242.75"
         style="fill:#7bc9c3;fill-opacity:1;fill-rule:nonzero;stroke:none"
         id="path26" /><path
         d="m 3383.07,3548.38 757.45,488.16 -476.79,739.81 -757.45,-488.16 476.79,-739.81"
         style="fill:#7bc9c3;fill-opacity:1;fill-rule:nonzero;stroke:none"
         id="path28" /><path
         d="m 4842.16,4848.68 1378.39,-2138.77 -95.32,-61.43 -1378.39,2138.77 95.32,61.43"
         style="fill:#7bc9c3;fill-opacity:1;fill-rule:nonzero;stroke:none"
         id="path30" /><path
         d="m 3562.23,4195.57 c 43.2,-67.03 132.56,-86.35 199.59,-43.15 l 164.43,105.97 820.59,528.86 476.79,-739.81 -1106.39,-713.05 -370.82,575.39 v 0 l -184.19,285.79"
         style="fill:#7bc9c3;fill-opacity:1;fill-rule:nonzero;stroke:none"
         id="path32" /><path
         d="m 3605.38,4395.17 274.91,177.18 35.54,22.9 c 67.03,43.2 86.35,132.56 43.15,199.59 l 78.22,-121.37 22.9,-35.54 133.55,-207.21 -431.83,-278.3 c -67.03,-43.2 -156.39,-23.88 -199.59,43.15 v 0 c -43.2,67.04 -23.88,156.4 43.15,199.6"
         style="fill:#58bab5;fill-opacity:1;fill-rule:nonzero;stroke:none"
         id="path34" /><path
         d="m 2906.28,4288.19 853.1,549.8 c 67.04,43.21 156.4,23.89 199.6,-43.15 v 0 c 43.2,-67.03 23.88,-156.39 -43.15,-199.59 l -853.1,-549.81 -156.45,242.75"
         style="fill:#7bc9c3;fill-opacity:1;fill-rule:nonzero;stroke:none"
         id="path36" /><path
         d="m 10168.3,2022.83 c -96,104.08 -209.72,186.3 -305.13,291.04 -85.64,94.03 -155.37,204.91 -241.93,297.89 -209.94,225.51 -508.26,330.08 -799.85,333.62 -124.77,1.52 -250.12,-13.99 -374.01,2.6 -159.3,21.34 -308.83,94.66 -464.36,138.61 -314.15,88.77 -655.36,53.5 -949.49,-98.16 -88.71,-45.74 -175.87,-102.57 -273.03,-114.57 -103.82,-12.82 -206.2,27.07 -309,47.72 -330.89,66.47 -689.56,-82.54 -900.62,-374.16 -153.71,18.47 -325.94,22.6 -479.09,-0.96 -153.14,-23.57 -306.08,-93.85 -405.65,-225.62 -51.17,-67.71 -88.81,-151.54 -156.08,-198.62 -71.72,-50.19 -161.82,-48.22 -246.16,-56.71 -362.4,-36.5 -696.84,-313.97 -832.09,-690.36 h 6948.49 c 0,342.11 -116,543.6 -212,647.68"
         style="fill:#8aba8b;fill-opacity:1;fill-rule:nonzero;stroke:none"
         id="path38" /><path
         d="m 8256.23,1437.22 c 148.27,0 282.58,50.2 380.51,131.47 53.98,-51.38 132.76,-83.81 220.57,-83.81 31,0 60.86,4.06 88.93,11.55 26.27,-56.12 65.49,-106.71 114.48,-149.24 h 1506.78 c 20.1,34.04 31,70.69 31,108.89 0,179.39 -240.2,324.82 -536.7,324.82 -32.9,0 -65.16,-1.9 -96.48,-5.34 -59.17,193.91 -266.96,337.46 -514.88,339.36 -8.15,11.71 -17.92,22.42 -28.65,31.78 -23.91,20.88 -52.08,36.16 -80,51.27 -17.89,9.68 -41.81,18.78 -56.7,4.93 -12.24,-11.38 -9.38,-32.65 1.55,-45.3 10.92,-12.64 27.36,-18.8 43.07,-24.48 -46.35,2.21 -92.7,4.42 -139.06,6.63 -14.88,0.71 -30.2,1.37 -44.28,-3.51 -14.08,-4.88 -26.83,-16.66 -28.24,-31.49 -1.3,-13.68 7.33,-26.78 18.6,-34.64 11.28,-7.85 24.9,-11.44 38.22,-14.78 0.94,-0.24 1.89,-0.44 2.82,-0.68 -60.56,-29.49 -113.68,-68.65 -156.36,-115 -46.9,26.57 -103.35,42.09 -164.1,42.09 -23.08,0 -45.51,-2.31 -67.07,-6.55 -45.13,214.25 -266.96,376.98 -534.01,376.98 -299.64,0 -542.55,-204.82 -542.55,-457.48 0,-252.65 242.91,-457.47 542.55,-457.47"
         style="fill:#4e8c59;fill-opacity:1;fill-rule:nonzero;stroke:none"
         id="path40" /><path
         d="m 10009.9,1751.57 c -28,-11.72 -44.28,-36.57 -36.36,-55.51 7.93,-18.95 37.06,-24.81 65.06,-13.1 28,11.72 44.3,36.57 36.4,55.51 -8,18.95 -37.1,24.81 -65.1,13.1"
         style="fill:#72a677;fill-opacity:1;fill-rule:nonzero;stroke:none"
         id="path42" /><path
         d="m 9192.8,2026.9 c -32.58,-13.62 -51.51,-42.53 -42.29,-64.56 9.21,-22.04 43.09,-28.86 75.66,-15.23 32.57,13.62 51.5,42.53 42.29,64.56 -9.22,22.03 -43.09,28.85 -75.66,15.23"
         style="fill:#72a677;fill-opacity:1;fill-rule:nonzero;stroke:none"
         id="path44" /><path
         d="m 9311.91,1991.97 c -17.23,-7.21 -26.21,-24.97 -20.06,-39.67 6.15,-14.71 25.1,-20.79 42.34,-13.58 17.23,7.21 26.21,24.97 20.06,39.67 -6.15,14.71 -25.11,20.79 -42.34,13.58"
         style="fill:#72a677;fill-opacity:1;fill-rule:nonzero;stroke:none"
         id="path46" /><path
         d="m 10145.6,1741.47 c -14.8,-1.64 -25.9,-11.09 -24.8,-21.11 1.2,-10.01 14.1,-16.8 28.9,-15.16 14.8,1.65 25.9,11.1 24.8,21.11 -1.2,10.02 -14.1,16.81 -28.9,15.16"
         style="fill:#72a677;fill-opacity:1;fill-rule:nonzero;stroke:none"
         id="path48" /><path
         d="m 10341.1,6272.15 c -8.3,30.77 -36.3,53.44 -69.7,53.44 -2.9,0 -5.7,-0.21 -8.5,-0.53 5.4,15.09 8.5,31.27 8.5,48.2 0,79.42 -64.4,143.81 -143.8,143.81 -23.7,0 -46,-5.83 -65.7,-15.95 -12.9,126.94 -120.19,225.99 -250.57,225.99 -136.09,0 -246.91,-107.93 -251.7,-242.86 -27.82,20.53 -62.1,32.82 -99.33,32.82 -80.7,0 -148.04,-57.04 -164.01,-132.99 -13.58,4.48 -28.05,6.99 -43.13,6.99 -69.68,0 -127.13,-51.77 -136.35,-118.92 h 1224.29"
         style="fill:#b9e2d9;fill-opacity:1;fill-rule:nonzero;stroke:none"
         id="path50" /><path
         d="m 4946.68,5997.39 c 0.03,0.82 0.24,1.6 0.24,2.43 0,28.57 -23.16,51.73 -51.73,51.73 -0.8,0 -1.54,-0.2 -2.33,-0.24 1.48,6.49 2.33,13.22 2.33,20.16 0,50 -40.53,90.53 -90.53,90.53 -13.44,0 -26.16,-3.01 -37.63,-8.27 -19.92,65.71 -80.92,113.56 -153.13,113.56 -26.3,0 -51.06,-6.47 -72.95,-17.71 -29.88,102.28 -124.29,177.02 -236.22,177.02 -124.13,0 -226.75,-91.91 -243.64,-211.38 -0.84,0.02 -1.65,0.13 -2.49,0.13 -45.45,0 -82.96,-33.52 -89.43,-77.16 -7.99,1.4 -16.16,2.27 -24.54,2.27 -77.68,0 -140.64,-62.97 -140.64,-140.64 0,-0.82 0.1,-1.61 0.12,-2.43 h 1142.57"
         style="fill:#b9e2d9;fill-opacity:1;fill-rule:nonzero;stroke:none"
         id="path52" /><path
         d="m 9146.22,6942.66 c 0.02,0.41 0.12,0.8 0.12,1.21 0,14.29 -11.58,25.87 -25.86,25.87 -0.4,0 -0.77,-0.1 -1.17,-0.12 0.74,3.25 1.17,6.61 1.17,10.08 0,25 -20.27,45.26 -45.27,45.26 -6.72,0 -13.07,-1.5 -18.81,-4.13 -9.96,32.85 -40.46,56.78 -76.57,56.78 -13.15,0 -25.53,-3.23 -36.47,-8.86 -14.94,51.14 -62.15,88.51 -118.11,88.51 -62.07,0 -113.38,-45.95 -121.82,-105.68 -0.42,0.01 -0.83,0.06 -1.25,0.06 -22.72,0 -41.48,-16.76 -44.71,-38.58 -4,0.7 -8.08,1.13 -12.27,1.13 -38.84,0 -70.32,-31.48 -70.32,-70.32 0,-0.41 0.05,-0.8 0.06,-1.21 h 571.28"
         style="fill:#b9e2d9;fill-opacity:1;fill-rule:nonzero;stroke:none"
         id="path54" /><path
         d="m 3898.95,1591.42 c -15.24,-7.39 -30.14,-15.36 -44.68,-23.88 -13.25,61.9 -29.47,116.24 -47.14,163.42 41.09,-47.41 70.38,-96.37 91.82,-139.54 z m 246.6,142.73 c -26.34,-29.21 -48.05,-58.2 -65.11,-86 -20.24,-3.15 -40.18,-7.21 -59.75,-12.19 -25.75,75.57 -56.88,199.52 -69.25,316.65 75.09,-63.88 152.72,-137.97 194.11,-218.46 z m 161.78,41.6 c 12.03,-46.41 17.29,-92.04 12.95,-135.04 -24.11,5.31 -48.72,9.26 -73.76,11.79 -5.4,15.28 -12.06,31.38 -20.15,48.05 24.02,26.59 51.31,51.64 80.96,75.2 z m 152.85,99.88 c -8.27,-55.14 -20.29,-105.61 -34.91,-150.09 -8.19,35.4 -18.91,72.47 -32.85,110.26 22.02,13.91 44.69,27.19 67.76,39.83 z m 97.22,-340.93 c 55.34,182.81 307.78,293.01 392.87,327.08 -211.45,-3.82 -396.51,-157.45 -474.08,-277.28 -9.58,4.93 -19.33,9.59 -29.18,14.05 33.29,97.59 47.81,199.86 50.57,296.87 161.43,82.61 334.3,135.94 428.32,164.91 -165.79,-7.82 -308.57,-41.71 -428.44,-89.81 -3.84,123.31 -24.78,232.83 -46.71,305.4 21.33,-112.4 25.78,-220.06 18.67,-317.11 -37.93,-16.41 -73.4,-34.22 -106.41,-53.08 -64.94,136.78 -176.75,274.97 -368.27,370.19 60.42,-60.42 213.36,-239.07 286.68,-422.17 -36.75,-26.1 -69.42,-53.24 -98.03,-80.66 -47.9,67.65 -121.54,138.82 -233.97,200.48 -6.02,69.63 -4.78,135.6 8.95,185.96 -18.85,-22.44 -31.39,-88.59 -35.2,-172.16 -10.6,5.39 -21.45,10.7 -32.7,15.91 10.5,-8.61 21.32,-17.5 32.28,-26.59 -3.6,-99.89 5.06,-222.24 30.01,-324.77 -48.7,50.9 -109.46,101.28 -172.18,142.69 -39.4,85.04 -81.91,139.59 -113.2,168.02 29.37,-47.76 51.48,-94.36 68.43,-140.19 -46.22,26.86 -92.18,47.82 -133.9,59.44 57.31,-25.23 104.93,-56.59 144.72,-90.71 14.53,-45.04 24.42,-89.39 31.54,-133.43 -72.51,70.5 -181.29,121.21 -329.03,119.26 83.74,-28.49 278.95,-74.37 343.96,-249.27 0.02,-0.27 0.04,-0.54 0.06,-0.81 -105.9,-79.44 -186.66,-190.59 -228.11,-319.41 h 1231.14 c -42.83,133.11 -127.65,247.31 -238.79,327.19"
         style="fill:#4e8c59;fill-opacity:1;fill-rule:nonzero;stroke:none"
         id="path56" /><path
         d="m 9832.28,1594.65 v 0 c 0,77.95 -63.19,141.14 -141.13,141.14 h -482.38 c -105.63,0 -191.26,85.63 -191.26,191.26 v 0 c 0,105.62 -85.63,191.25 -191.25,191.25 H 5590.83 c -105.63,0 -191.26,-85.63 -191.26,-191.25 v 0 c 0,-105.63 -85.63,-191.26 -191.26,-191.26 h -482.37 c -77.95,0 -141.14,-63.19 -141.14,-141.14 v 0 c 0,-77.94 -63.19,-141.13 -141.13,-141.13 H 3372.35 c -74.99,0 -135.79,-60.8 -135.79,-135.79 v 0 c 0,-75 60.8,-135.8 135.79,-135.8 h 7255.25 c 75,0 135.8,60.8 135.8,135.8 v 0 c 0,74.99 -60.8,135.79 -135.8,135.79 h -654.19 c -77.94,0 -141.13,63.19 -141.13,141.13"
         style="fill:#fcd192;fill-opacity:1;fill-rule:nonzero;stroke:none"
         id="path58" /><path
         d="m 8849.39,1727.82 c 0,43.97 -35.65,79.62 -79.62,79.62 H 8066.95 7957.03 6294.19 c -69.51,0 -125.86,-56.35 -125.86,-125.86 v 0 c 0,-69.5 56.35,-125.85 125.86,-125.85 h 1726.53 c 25.53,0 46.23,20.7 46.23,46.23 v 0 c 0,25.54 20.71,46.24 46.24,46.24 h 656.58 c 43.97,0 79.62,35.65 79.62,79.62 v 0"
         style="fill:#e9b261;fill-opacity:1;fill-rule:nonzero;stroke:none"
         id="path60" /><path
         d="m 7948.74,3548.47 v 0 c -68.74,0 -124.47,55.73 -124.47,124.47 v 636.25 h 57.47 c 105.75,0 191.48,-85.73 191.48,-191.48 v -444.77 c 0,-68.74 -55.73,-124.47 -124.48,-124.47"
         style="fill:#ac6f2b;fill-opacity:1;fill-rule:nonzero;stroke:none"
         id="path62" /><path
         d="M 7791.93,4336.28 V 4235 l 229.89,-229.88 c 23.74,-23.74 64.33,-6.92 64.33,26.65 v 223.15 c 0,44.93 -36.42,81.36 -81.35,81.36 h -212.87"
         style="fill:#914e0a;fill-opacity:1;fill-rule:nonzero;stroke:none"
         id="path64" /><path
         d="m 6340.86,4266.21 h -504.87 c -54.18,0 -105.15,25.72 -137.33,69.3 -32.19,43.59 -41.78,99.87 -25.83,151.65 l 425.79,1382.75 c 27.75,90.11 123.28,140.67 213.41,112.92 90.11,-27.75 140.66,-123.29 112.91,-213.4 L 6067.19,4607.64 h 273.67 c 94.28,0 170.72,-76.43 170.72,-170.71 0,-94.29 -76.44,-170.72 -170.72,-170.72"
         style="fill:#58687b;fill-opacity:1;fill-rule:nonzero;stroke:none"
         id="path66" /><path
         d="m 6340.86,4607.64 h -273.67 l 357.75,1161.79 c 24.52,79.63 -12.17,163.41 -83.2,201 l -504.27,-1593.35 633.75,-50.26 c 25.14,29.73 40.36,68.12 40.36,110.11 0,94.28 -76.44,170.71 -170.72,170.71"
         style="fill:#465261;fill-opacity:1;fill-rule:nonzero;stroke:none"
         id="path68" /><path
         d="m 6340.86,4266.21 h -504.87 c -94.28,0 -170.72,76.43 -170.72,170.72 0,94.28 76.44,170.71 170.72,170.71 h 504.87 c 94.28,0 170.72,-76.43 170.72,-170.71 0,-94.29 -76.44,-170.72 -170.72,-170.72"
         style="fill:#465261;fill-opacity:1;fill-rule:nonzero;stroke:none"
         id="path70" /><path
         d="m 6261.78,4504.38 v -832.52 c 486.97,109.4 976.75,110.03 1469.39,0 v 832.52 H 6261.78"
         style="fill:#3f4a56;fill-opacity:1;fill-rule:nonzero;stroke:none"
         id="path72" /><path
         d="M 7552.87,4340 H 6446.46 l 50.66,-532.53 57.98,-1902.34 403.96,12.32 -57.6,1890.02 h 196.41 l -57.6,-1890.02 403.96,-12.32 57.98,1902.34 50.66,532.53"
         style="fill:#e7e6e6;fill-opacity:1;fill-rule:nonzero;stroke:none"
         id="path74" /><path
         d="M 7552.87,4340 H 6446.46 l 50.66,-532.53 -2.42,25.42 c 0,308.23 1009.92,308.23 1009.92,0 l -2.41,-25.42 50.66,532.53"
         style="fill:#cdcdcc;fill-opacity:1;fill-rule:nonzero;stroke:none"
         id="path76" /><path
         d="m 6732.1,3807.47 c -0.01,-1.27 -0.1,-2.52 -0.05,-3.8 l 72.61,-1890.93 154.4,4.71 -57.6,1890.02 H 6732.1"
         style="fill:#cdcdcc;fill-opacity:1;fill-rule:nonzero;stroke:none"
         id="path78" /><path
         d="m 7432.29,4340 h -95.18 l -67.86,-2429.53 174.98,-5.34 57.98,1902.34 32.91,345.95 -102.83,186.58"
         style="fill:#cdcdcc;fill-opacity:1;fill-rule:nonzero;stroke:none"
         id="path80" /><path
         d="m 7423.44,5980.91 h -847.55 c -129.81,0 -235.03,-105.23 -235.03,-235.03 v -1590 l 273.24,-209.05 385.56,250.85 385.57,-250.85 273.24,209.05 v 1590 c 0,129.8 -105.23,235.03 -235.03,235.03"
         style="fill:#fbfbfb;fill-opacity:1;fill-rule:nonzero;stroke:none"
         id="path82" /><path
         d="m 6711.65,6253.28 v -399.51 h 576.03 v 399.51 h -576.03"
         style="fill:#fbfbfb;fill-opacity:1;fill-rule:nonzero;stroke:none"
         id="path84" /><path
         d="m 6999.66,4197.68 14.37,-9.34 V 5980.91 H 6985.3 V 4188.34 l 14.36,9.34"
         style="fill:#d3d2d2;fill-opacity:1;fill-rule:nonzero;stroke:none"
         id="path86" /><path
         d="m 6711.65,6043.07 v -99.29 h 576.03 v 99.29 h -576.03"
         style="fill:#6e7f93;fill-opacity:1;fill-rule:nonzero;stroke:none"
         id="path88" /><path
         d="m 7649.5,7099.9 h -182.92 v -372.79 h 182.92 c 89.47,0 162,72.53 162,162 v 48.78 c 0,89.48 -72.53,162.01 -162,162.01"
         style="fill:#f0c2a8;fill-opacity:1;fill-rule:nonzero;stroke:none"
         id="path90" /><path
         d="m 7608.21,6727.11 h 41.29 c 9.69,0 19.17,0.9 28.39,2.53 v 367.73 c -9.22,1.63 -18.7,2.53 -28.39,2.53 h -41.29 v -372.79"
         style="fill:#d6a189;fill-opacity:1;fill-rule:nonzero;stroke:none"
         id="path92" /><path
         d="m 6349.83,7099.9 h 182.91 v -372.79 h -182.91 c -89.47,0 -162.01,72.53 -162.01,162 v 48.78 c 0,89.48 72.54,162.01 162.01,162.01"
         style="fill:#f0c2a8;fill-opacity:1;fill-rule:nonzero;stroke:none"
         id="path94" /><path
         d="m 6391.12,6727.11 h -41.29 c -9.69,0 -19.17,0.9 -28.4,2.53 v 367.73 c 9.23,1.63 18.71,2.53 28.4,2.53 h 41.29 v -372.79"
         style="fill:#d6a189;fill-opacity:1;fill-rule:nonzero;stroke:none"
         id="path96" /><path
         d="M 6360.28,7706.32 V 6566.1 c 0,-174.76 110.68,-330.63 275.95,-387.42 134.32,-46.15 283.68,-90.32 363.43,-90.32 79.75,0 229.12,44.17 363.43,90.32 165.28,56.79 275.95,212.66 275.95,387.42 V 7706.32 H 6360.28"
         style="fill:#f0c2a8;fill-opacity:1;fill-rule:nonzero;stroke:none"
         id="path98" /><path
         d="m 7301.03,6873.44 c 61.58,0 111.49,49.91 111.49,111.49 h -222.98 c 0,-61.58 49.92,-111.49 111.49,-111.49"
         style="fill:#a97662;fill-opacity:1;fill-rule:nonzero;stroke:none"
         id="path100" /><path
         d="m 7470.59,7077.83 h -339.11 c -25.66,0 -46.46,-20.79 -46.46,-46.45 0,-25.66 20.8,-46.45 46.46,-46.45 h 339.11 c 25.66,0 46.46,20.79 46.46,46.45 0,25.66 -20.8,46.45 -46.46,46.45"
         style="fill:#fee84c;fill-opacity:1;fill-rule:nonzero;stroke:none"
         id="path102" /><path
         d="m 6698.29,6873.44 c 61.58,0 111.49,49.91 111.49,111.49 H 6586.8 c 0,-61.58 49.92,-111.49 111.49,-111.49"
         style="fill:#a97662;fill-opacity:1;fill-rule:nonzero;stroke:none"
         id="path104" /><path
         d="m 6867.85,7077.83 h -339.11 c -25.66,0 -46.46,-20.79 -46.46,-46.45 0,-25.66 20.8,-46.45 46.46,-46.45 h 339.11 c 25.66,0 46.45,20.79 46.45,46.45 0,25.66 -20.79,46.45 -46.45,46.45"
         style="fill:#fee84c;fill-opacity:1;fill-rule:nonzero;stroke:none"
         id="path106" /><path
         d="m 6360.28,7138.22 c 0,0 965.84,92.91 1278.76,-88.26 0,88.26 0,257.82 0,257.82 H 6360.28 v -169.56"
         style="fill:#d6a189;fill-opacity:1;fill-rule:nonzero;stroke:none"
         id="path108" /><path
         d="m 6760.43,6540.85 c 0,0 6.84,3.95 19.02,9.98 6.05,3.08 13.57,6.36 22.42,9.87 4.39,1.82 9.13,3.55 14.12,5.49 5,1.85 10.29,3.45 15.82,5.31 5.53,1.79 11.32,3.59 17.34,5.31 6.03,1.68 12.32,3.17 18.78,4.83 12.92,3.28 26.73,5.73 41.05,8.22 14.36,2.07 29.26,4.22 44.48,5.17 15.2,1.49 30.71,1.57 46.2,2 15.5,-0.43 31.01,-0.46 46.21,-1.95 15.23,-0.9 30.12,-3.12 44.48,-5.15 14.32,-2.48 28.14,-4.93 41.06,-8.21 6.44,-1.65 12.71,-3.27 18.78,-4.82 6.02,-1.73 11.81,-3.54 17.34,-5.32 5.52,-1.87 10.83,-3.48 15.81,-5.32 4.96,-1.94 9.67,-3.67 14.05,-5.49 8.78,-3.51 16.35,-6.8 22.46,-9.91 12.26,-6.05 19.05,-10.01 19.05,-10.01 0,0 -7.94,-0.66 -21.44,-0.93 -6.71,-0.08 -14.85,-0.18 -24.19,-0.3 -9.21,0.02 -19.61,0.05 -30.95,0.07 -22.31,0.29 -48.35,0.63 -76.24,0.99 -27.58,0.2 -57,0.41 -86.42,0.62 -29.42,-0.19 -58.84,-0.37 -86.42,-0.55 -27.89,-0.36 -53.93,-0.69 -76.25,-0.98 -11.31,-0.03 -21.68,-0.05 -30.87,-0.07 -9.35,0.1 -17.51,0.19 -24.23,0.26 -13.58,0.24 -21.46,0.89 -21.46,0.89"
         style="fill:#a97662;fill-opacity:1;fill-rule:nonzero;stroke:none"
         id="path110" /><path
         d="m 7811.5,7091.74 v 20.38 c 0,14.42 -11.68,26.1 -26.1,26.1 h -1.85 c -14.42,0 -26.1,11.69 -26.1,26.11 v 143.45 h -118.41 v -169.56 -72.58 -152.14 h 118.41 24.38 c 45.22,0 81.88,36.66 81.88,81.88 v 44.16 c 0,14.41 -11.69,26.1 -26.1,26.1 v 0 c -14.42,0 -26.11,11.69 -26.11,26.1"
         style="fill:#fee84c;fill-opacity:1;fill-rule:nonzero;stroke:none"
         id="path112" /><path
         d="m 6187.82,7091.74 v 20.38 c 0,14.42 11.69,26.1 26.1,26.1 h 1.86 c 14.42,0 26.1,11.69 26.1,26.11 v 143.45 h 118.4 v -169.56 -72.58 -152.14 h -118.4 -24.39 c -45.21,0 -81.87,36.66 -81.87,81.88 v 44.16 c 0,14.41 11.68,26.1 26.1,26.1 v 0 c 14.42,0 26.1,11.69 26.1,26.1"
         style="fill:#fee84c;fill-opacity:1;fill-rule:nonzero;stroke:none"
         id="path114" /><path
         d="m 7758.99,7705.85 v 0 c -77.19,0 -145.66,48.81 -171.57,121.52 -86.52,242.79 -318.18,414.34 -587.76,414.34 v 0 c -269.58,0 -501.23,-171.55 -587.75,-414.34 -25.92,-72.71 -94.39,-121.52 -171.57,-121.52 v 0 c -250.26,0 -453.13,-202.87 -453.13,-453.12 v -0.01 c 0,-35.12 28.48,-63.59 63.6,-63.59 h 2297.71 c 35.12,0 63.59,28.47 63.59,63.59 v 0.01 c 0,250.25 -202.87,453.12 -453.12,453.12"
         style="fill:#65798e;fill-opacity:1;fill-rule:nonzero;stroke:none"
         id="path116" /><path
         d="m 7837.03,7654.8 c 29.31,0 49.59,11.17 63.54,28.36 -44.56,14.65 -92.12,22.69 -141.58,22.69 v 0 c -77.19,0 -145.66,48.81 -171.57,121.52 -82.88,232.57 -298.97,399.67 -553.97,413.32 l -33.79,-42.55 c 98.6,0 432.03,-150.58 432.03,-554.73 0,-404.15 0,-454.28 0,-454.28 h 226.46 c 0,0 0,206.91 0,304.47 0,97.55 49.43,161.2 178.88,161.2"
         style="fill:#516579;fill-opacity:1;fill-rule:nonzero;stroke:none"
         id="path118" /><path
         d="m 7517.05,7189.13 h 631.47 c 35.12,0 63.59,28.47 63.59,63.59 v 0.01 c 0,250.25 -202.87,453.12 -453.12,453.12 v 0 c -77.19,0 -145.66,48.81 -171.57,121.52 -3.44,9.65 -7.19,19.15 -11.08,28.57 h -59.29 v -666.81"
         style="fill:#516579;fill-opacity:1;fill-rule:nonzero;stroke:none"
         id="path120" /><path
         d="m 5787.21,7252.73 v -0.01 c 0,-35.12 28.48,-63.59 63.6,-63.59 h 2297.71 c 35.12,0 63.59,28.47 63.59,63.59 v 0.01 c 0,16.64 -0.96,33.06 -2.71,49.24 H 5789.92 c -1.74,-16.18 -2.71,-32.6 -2.71,-49.24"
         style="fill:#516579;fill-opacity:1;fill-rule:nonzero;stroke:none"
         id="path122" /><path
         d="m 7758.99,7705.85 v 0 c -77.19,0 -145.66,48.81 -171.57,121.52 -86.52,242.79 -318.18,414.34 -587.76,414.34 v 0 c -269.58,0 -501.23,-171.55 -587.75,-414.34 -25.92,-72.71 -94.39,-121.52 -171.57,-121.52 v 0 c -250.26,0 -453.13,-202.87 -453.13,-453.12 v -0.01 c 0,-29.64 20.32,-54.47 47.76,-61.52 -2.63,29.9 -4.19,56.91 -4.19,61.52 0,225.84 183.72,409.56 409.56,409.56 95.09,0 180.53,60.47 212.6,150.47 82.15,230.52 301.86,385.39 546.72,385.39 244.86,0 464.58,-154.87 546.73,-385.39 32.07,-90 117.51,-150.47 212.6,-150.47 225.83,0 409.56,-183.72 409.56,-409.55 0,-4.61 -1.57,-31.63 -4.19,-61.53 27.44,7.04 47.75,31.88 47.75,61.52 v 0.01 c 0,250.25 -202.87,453.12 -453.12,453.12"
         style="fill:#eae7e3;fill-opacity:1;fill-rule:nonzero;stroke:none"
         id="path124" /><path
         d="m 6463.7,1621.81 h 485.44 c 21.81,0 39.49,17.68 39.49,39.49 v 199.75 c 0,66.7 -54.07,120.78 -120.78,120.78 h -224.14 c -121.22,0 -219.49,-98.27 -219.49,-219.5 V 1661.3 c 0,-21.81 17.67,-39.49 39.48,-39.49"
         style="fill:#4c5a6a;fill-opacity:1;fill-rule:nonzero;stroke:none"
         id="path126" /><path
         d="m 6988.63,1706.59 v -45.29 c 0,-21.81 -17.68,-39.49 -39.49,-39.49 H 6463.7 c -21.81,0 -39.48,17.68 -39.48,39.49 v 45.29 h 564.41"
         style="fill:#3f4a56;fill-opacity:1;fill-rule:nonzero;stroke:none"
         id="path128" /><path
         d="m 6589.16,1921.81 c -13.23,11.37 -37.03,5.36 -53.14,-13.41 -16.12,-18.77 -18.46,-43.2 -5.23,-54.56 13.24,-11.37 37.03,-5.36 53.15,13.41 16.12,18.77 18.46,43.2 5.22,54.56"
         style="fill:#6e7f93;fill-opacity:1;fill-rule:nonzero;stroke:none"
         id="path130" /><path
         d="m 6585.82,1826.76 c -9.43,8.09 -24.5,6.01 -33.66,-4.66 -9.16,-10.67 -8.94,-25.88 0.48,-33.98 9.43,-8.09 24.5,-6.01 33.66,4.66 9.16,10.67 8.95,25.88 -0.48,33.98"
         style="fill:#6e7f93;fill-opacity:1;fill-rule:nonzero;stroke:none"
         id="path132" /><path
         d="m 7536.21,1621.81 h -485.45 c -21.8,0 -39.48,17.68 -39.48,39.49 v 199.75 c 0,66.7 54.07,120.78 120.78,120.78 h 224.14 c 121.22,0 219.49,-98.27 219.49,-219.5 V 1661.3 c 0,-21.81 -17.68,-39.49 -39.48,-39.49"
         style="fill:#4c5a6a;fill-opacity:1;fill-rule:nonzero;stroke:none"
         id="path134" /><path
         d="m 7011.28,1706.59 v -45.29 c 0,-21.81 17.68,-39.49 39.48,-39.49 h 485.45 c 21.8,0 39.48,17.68 39.48,39.49 v 45.29 h -564.41"
         style="fill:#3f4a56;fill-opacity:1;fill-rule:nonzero;stroke:none"
         id="path136" /><path
         d="m 7150.1,1946.06 c -13.24,11.37 -37.03,5.36 -53.15,-13.41 -16.12,-18.77 -18.46,-43.2 -5.22,-54.56 13.23,-11.37 37.03,-5.36 53.14,13.41 16.12,18.77 18.46,43.2 5.23,54.56"
         style="fill:#6e7f93;fill-opacity:1;fill-rule:nonzero;stroke:none"
         id="path138" /><path
         d="m 7146.75,1851.01 c -9.43,8.09 -24.49,6.01 -33.65,-4.66 -9.17,-10.67 -8.95,-25.88 0.48,-33.98 9.42,-8.09 24.49,-6.01 33.65,4.66 9.16,10.67 8.95,25.88 -0.48,33.98"
         style="fill:#6e7f93;fill-opacity:1;fill-rule:nonzero;stroke:none"
         id="path140" /><path
         d="M 7189.69,5686.54 V 4056.66 c 0,-45.21 23.26,-87.25 61.56,-111.27 l 413.49,-253.33 c 87.47,-54.86 201.14,8.02 201.14,111.27 v 1920.22 c 0,142.13 -115.23,257.36 -257.37,257.36 h -122.26 l -296.56,-294.37"
         style="fill:#58687b;fill-opacity:1;fill-rule:nonzero;stroke:none"
         id="path142" /><path
         d="m 7341.7,5751.57 h -86.49 l -65.52,-65.03 V 4056.66 c 0,-45.21 23.26,-87.25 61.56,-111.27 l 90.45,-56.73 v 1862.91"
         style="fill:#f04154;fill-opacity:1;fill-rule:nonzero;stroke:none"
         id="path144" /><path
         d="m 7674.39,3686.59 c 85.95,-44.72 191.49,17.24 191.49,116.74 v 1920.22 c 0,36.67 -7.72,71.52 -21.55,103.09 H 7674.39 V 3686.59"
         style="fill:#465261;fill-opacity:1;fill-rule:nonzero;stroke:none"
         id="path146" /><path
         d="m 7341.7,5751.57 h -86.49 l -65.52,-65.03 v -55.75 l 152.01,-33.58 v 154.36"
         style="fill:#b42637;fill-opacity:1;fill-rule:nonzero;stroke:none"
         id="path148" /><path
         d="m 7294.18,5410.68 h -71.97 c -9.62,0 -17.42,7.8 -17.42,17.42 0,9.62 7.8,17.42 17.42,17.42 h 71.97 c 9.62,0 17.42,-7.8 17.42,-17.42 0,-9.62 -7.8,-17.42 -17.42,-17.42"
         style="fill:#74091a;fill-opacity:1;fill-rule:nonzero;stroke:none"
         id="path150" /><path
         d="m 7294.18,5456.59 c -15.73,0 -28.49,-12.75 -28.49,-28.49 0,-15.73 12.76,-28.48 28.49,-28.48 15.73,0 28.49,12.75 28.49,28.48 0,15.74 -12.76,28.49 -28.49,28.49"
         style="fill:#fff98a;fill-opacity:1;fill-rule:nonzero;stroke:none"
         id="path152" /><path
         d="m 7294.18,5143.57 h -71.97 c -9.62,0 -17.42,7.8 -17.42,17.42 0,9.62 7.8,17.42 17.42,17.42 h 71.97 c 9.62,0 17.42,-7.8 17.42,-17.42 0,-9.62 -7.8,-17.42 -17.42,-17.42"
         style="fill:#74091a;fill-opacity:1;fill-rule:nonzero;stroke:none"
         id="path154" /><path
         d="m 7294.18,5189.48 c -15.73,0 -28.49,-12.76 -28.49,-28.49 0,-15.73 12.76,-28.49 28.49,-28.49 15.73,0 28.49,12.76 28.49,28.49 0,15.73 -12.76,28.49 -28.49,28.49"
         style="fill:#fff98a;fill-opacity:1;fill-rule:nonzero;stroke:none"
         id="path156" /><path
         d="m 7294.18,4876.46 h -71.97 c -9.62,0 -17.42,7.8 -17.42,17.42 0,9.62 7.8,17.42 17.42,17.42 h 71.97 c 9.62,0 17.42,-7.8 17.42,-17.42 0,-9.62 -7.8,-17.42 -17.42,-17.42"
         style="fill:#74091a;fill-opacity:1;fill-rule:nonzero;stroke:none"
         id="path158" /><path
         d="m 7294.18,4922.37 c -15.73,0 -28.49,-12.76 -28.49,-28.49 0,-15.73 12.76,-28.49 28.49,-28.49 15.73,0 28.49,12.76 28.49,28.49 0,15.73 -12.76,28.49 -28.49,28.49"
         style="fill:#fff98a;fill-opacity:1;fill-rule:nonzero;stroke:none"
         id="path160" /><path
         d="m 7294.18,4609.35 h -71.97 c -9.62,0 -17.42,7.8 -17.42,17.42 0,9.62 7.8,17.42 17.42,17.42 h 71.97 c 9.62,0 17.42,-7.8 17.42,-17.42 0,-9.62 -7.8,-17.42 -17.42,-17.42"
         style="fill:#74091a;fill-opacity:1;fill-rule:nonzero;stroke:none"
         id="path162" /><path
         d="m 7294.18,4655.26 c -15.73,0 -28.49,-12.76 -28.49,-28.49 0,-15.73 12.76,-28.49 28.49,-28.49 15.73,0 28.49,12.76 28.49,28.49 0,15.73 -12.76,28.49 -28.49,28.49"
         style="fill:#fff98a;fill-opacity:1;fill-rule:nonzero;stroke:none"
         id="path164" /><path
         d="m 7294.18,4342.24 h -71.97 c -9.62,0 -17.42,7.8 -17.42,17.42 0,9.63 7.8,17.42 17.42,17.42 h 71.97 c 9.62,0 17.42,-7.79 17.42,-17.42 0,-9.62 -7.8,-17.42 -17.42,-17.42"
         style="fill:#74091a;fill-opacity:1;fill-rule:nonzero;stroke:none"
         id="path166" /><path
         d="m 7294.18,4388.15 c -15.73,0 -28.49,-12.76 -28.49,-28.49 0,-15.73 12.76,-28.49 28.49,-28.49 15.73,0 28.49,12.76 28.49,28.49 0,15.73 -12.76,28.49 -28.49,28.49"
         style="fill:#fff98a;fill-opacity:1;fill-rule:nonzero;stroke:none"
         id="path168" /><path
         d="m 7294.18,4075.13 h -71.97 c -9.62,0 -17.42,7.8 -17.42,17.42 0,9.62 7.8,17.42 17.42,17.42 h 71.97 c 9.62,0 17.42,-7.8 17.42,-17.42 0,-9.62 -7.8,-17.42 -17.42,-17.42"
         style="fill:#74091a;fill-opacity:1;fill-rule:nonzero;stroke:none"
         id="path170" /><path
         d="m 7294.18,4121.04 c -15.73,0 -28.49,-12.76 -28.49,-28.49 0,-15.73 12.76,-28.49 28.49,-28.49 15.73,0 28.49,12.76 28.49,28.49 0,15.73 -12.76,28.49 -28.49,28.49"
         style="fill:#fff98a;fill-opacity:1;fill-rule:nonzero;stroke:none"
         id="path172" /><path
         d="m 7287.83,6016.36 -98.14,-329.82 264.83,-58.52 c 20.39,-4.5 39.61,11.27 39.17,32.14 l -6.77,324.13 c -0.37,17.82 -14.92,32.07 -32.74,32.07 h -166.35"
         style="fill:#f04154;fill-opacity:1;fill-rule:nonzero;stroke:none"
         id="path174" /><path
         d="M 6809.63,5686.54 V 4056.66 c 0,-45.21 -23.25,-87.25 -61.55,-111.27 l -413.49,-253.33 c -87.48,-54.86 -201.14,8.02 -201.14,111.27 v 1920.22 c 0,142.13 115.23,257.36 257.36,257.36 h 122.26 l 296.56,-294.37"
         style="fill:#58687b;fill-opacity:1;fill-rule:nonzero;stroke:none"
         id="path176" /><path
         d="m 6657.63,5751.57 h 86.49 l 65.51,-65.03 V 4056.66 c 0,-45.21 -23.25,-87.25 -61.55,-111.27 l -90.45,-56.73 v 1862.91"
         style="fill:#f04154;fill-opacity:1;fill-rule:nonzero;stroke:none"
         id="path178" /><path
         d="m 6657.63,5751.57 h 86.49 l 65.51,-65.03 v -55.75 l -152,-33.58 v 154.36"
         style="fill:#b42637;fill-opacity:1;fill-rule:nonzero;stroke:none"
         id="path180" /><path
         d="m 6777.12,5410.68 h -71.97 c -9.63,0 -17.43,7.8 -17.43,17.42 0,9.62 7.8,17.42 17.43,17.42 h 71.97 c 9.62,0 17.42,-7.8 17.42,-17.42 0,-9.62 -7.8,-17.42 -17.42,-17.42"
         style="fill:#74091a;fill-opacity:1;fill-rule:nonzero;stroke:none"
         id="path182" /><path
         d="m 6705.15,5456.59 c 15.73,0 28.48,-12.75 28.48,-28.49 0,-15.73 -12.75,-28.48 -28.48,-28.48 -15.74,0 -28.49,12.75 -28.49,28.48 0,15.74 12.75,28.49 28.49,28.49"
         style="fill:#fff98a;fill-opacity:1;fill-rule:nonzero;stroke:none"
         id="path184" /><path
         d="m 6777.12,5143.57 h -71.97 c -9.63,0 -17.43,7.8 -17.43,17.42 0,9.62 7.8,17.42 17.43,17.42 h 71.97 c 9.62,0 17.42,-7.8 17.42,-17.42 0,-9.62 -7.8,-17.42 -17.42,-17.42"
         style="fill:#74091a;fill-opacity:1;fill-rule:nonzero;stroke:none"
         id="path186" /><path
         d="m 6705.15,5189.48 c 15.73,0 28.48,-12.76 28.48,-28.49 0,-15.73 -12.75,-28.49 -28.48,-28.49 -15.74,0 -28.49,12.76 -28.49,28.49 0,15.73 12.75,28.49 28.49,28.49"
         style="fill:#fff98a;fill-opacity:1;fill-rule:nonzero;stroke:none"
         id="path188" /><path
         d="m 6777.12,4876.46 h -71.97 c -9.63,0 -17.43,7.8 -17.43,17.42 0,9.62 7.8,17.42 17.43,17.42 h 71.97 c 9.62,0 17.42,-7.8 17.42,-17.42 0,-9.62 -7.8,-17.42 -17.42,-17.42"
         style="fill:#74091a;fill-opacity:1;fill-rule:nonzero;stroke:none"
         id="path190" /><path
         d="m 6705.15,4922.37 c 15.73,0 28.48,-12.76 28.48,-28.49 0,-15.73 -12.75,-28.49 -28.48,-28.49 -15.74,0 -28.49,12.76 -28.49,28.49 0,15.73 12.75,28.49 28.49,28.49"
         style="fill:#fff98a;fill-opacity:1;fill-rule:nonzero;stroke:none"
         id="path192" /><path
         d="m 6777.12,4609.35 h -71.97 c -9.63,0 -17.43,7.8 -17.43,17.42 0,9.62 7.8,17.42 17.43,17.42 h 71.97 c 9.62,0 17.42,-7.8 17.42,-17.42 0,-9.62 -7.8,-17.42 -17.42,-17.42"
         style="fill:#74091a;fill-opacity:1;fill-rule:nonzero;stroke:none"
         id="path194" /><path
         d="m 6705.15,4655.26 c 15.73,0 28.48,-12.76 28.48,-28.49 0,-15.73 -12.75,-28.49 -28.48,-28.49 -15.74,0 -28.49,12.76 -28.49,28.49 0,15.73 12.75,28.49 28.49,28.49"
         style="fill:#fff98a;fill-opacity:1;fill-rule:nonzero;stroke:none"
         id="path196" /><path
         d="m 6777.12,4342.24 h -71.97 c -9.63,0 -17.43,7.8 -17.43,17.42 0,9.63 7.8,17.42 17.43,17.42 h 71.97 c 9.62,0 17.42,-7.79 17.42,-17.42 0,-9.62 -7.8,-17.42 -17.42,-17.42"
         style="fill:#74091a;fill-opacity:1;fill-rule:nonzero;stroke:none"
         id="path198" /><path
         d="m 6705.15,4388.15 c 15.73,0 28.48,-12.76 28.48,-28.49 0,-15.73 -12.75,-28.49 -28.48,-28.49 -15.74,0 -28.49,12.76 -28.49,28.49 0,15.73 12.75,28.49 28.49,28.49"
         style="fill:#fff98a;fill-opacity:1;fill-rule:nonzero;stroke:none"
         id="path200" /><path
         d="m 6777.12,4075.13 h -71.97 c -9.63,0 -17.43,7.8 -17.43,17.42 0,9.62 7.8,17.42 17.43,17.42 h 71.97 c 9.62,0 17.42,-7.8 17.42,-17.42 0,-9.62 -7.8,-17.42 -17.42,-17.42"
         style="fill:#74091a;fill-opacity:1;fill-rule:nonzero;stroke:none"
         id="path202" /><path
         d="m 6705.15,4121.04 c 15.73,0 28.48,-12.76 28.48,-28.49 0,-15.73 -12.75,-28.49 -28.48,-28.49 -15.74,0 -28.49,12.76 -28.49,28.49 0,15.73 12.75,28.49 28.49,28.49"
         style="fill:#fff98a;fill-opacity:1;fill-rule:nonzero;stroke:none"
         id="path204" /><path
         d="m 6711.5,6016.36 98.13,-329.82 -264.82,-58.52 c -20.39,-4.5 -39.61,11.27 -39.17,32.14 l 6.77,324.13 c 0.37,17.82 14.92,32.07 32.74,32.07 h 166.35"
         style="fill:#f04154;fill-opacity:1;fill-rule:nonzero;stroke:none"
         id="path206" /><path
         d="m 7086.76,5851.65 c -16.48,0 -29.84,-13.36 -29.84,-29.84 0,-16.49 13.36,-29.85 29.84,-29.85 16.49,0 29.85,13.36 29.85,29.85 0,16.48 -13.36,29.84 -29.85,29.84"
         style="fill:#e7e6e6;fill-opacity:1;fill-rule:nonzero;stroke:none"
         id="path208" /><path
         d="m 7086.76,5535.76 c -16.48,0 -29.84,-13.36 -29.84,-29.84 0,-16.48 13.36,-29.84 29.84,-29.84 16.49,0 29.85,13.36 29.85,29.84 0,16.48 -13.36,29.84 -29.85,29.84"
         style="fill:#e7e6e6;fill-opacity:1;fill-rule:nonzero;stroke:none"
         id="path210" /><path
         d="m 7086.76,5219.87 c -16.48,0 -29.84,-13.36 -29.84,-29.84 0,-16.48 13.36,-29.84 29.84,-29.84 16.49,0 29.85,13.36 29.85,29.84 0,16.48 -13.36,29.84 -29.85,29.84"
         style="fill:#e7e6e6;fill-opacity:1;fill-rule:nonzero;stroke:none"
         id="path212" /><path
         d="m 7086.76,4903.98 c -16.48,0 -29.84,-13.36 -29.84,-29.84 0,-16.48 13.36,-29.84 29.84,-29.84 16.49,0 29.85,13.36 29.85,29.84 0,16.48 -13.36,29.84 -29.85,29.84"
         style="fill:#e7e6e6;fill-opacity:1;fill-rule:nonzero;stroke:none"
         id="path214" /><path
         d="m 7086.76,4588.1 c -16.48,0 -29.84,-13.36 -29.84,-29.84 0,-16.49 13.36,-29.85 29.84,-29.85 16.49,0 29.85,13.36 29.85,29.85 0,16.48 -13.36,29.84 -29.85,29.84"
         style="fill:#e7e6e6;fill-opacity:1;fill-rule:nonzero;stroke:none"
         id="path216" /><path
         d="m 7086.76,4272.21 c -16.48,0 -29.84,-13.36 -29.84,-29.84 0,-16.48 13.36,-29.84 29.84,-29.84 16.49,0 29.85,13.36 29.85,29.84 0,16.48 -13.36,29.84 -29.85,29.84"
         style="fill:#e7e6e6;fill-opacity:1;fill-rule:nonzero;stroke:none"
         id="path218" /><path
         d="m 8626.85,3927.8 c -60.21,0 -118.56,31.9 -149.68,88.35 l -952.3,1728.09 c -45.5,82.58 -15.45,186.41 67.12,231.91 82.59,45.53 186.42,15.45 231.92,-67.12 l 952.31,-1728.08 c 45.5,-82.58 15.45,-186.41 -67.13,-231.92 -26.12,-14.39 -54.39,-21.23 -82.24,-21.23"
         style="fill:#58687b;fill-opacity:1;fill-rule:nonzero;stroke:none"
         id="path220" /><path
         d="m 8626.87,3903.41 c -68.8,0 -135.5,36.46 -171.06,100.97 l -128.18,232.61 c -52,94.38 -17.66,213.04 76.72,265.05 94.37,52 213.04,17.66 265.05,-76.72 l 128.18,-232.61 c 52,-94.37 17.66,-213.03 -76.72,-265.04 -29.85,-16.45 -62.16,-24.26 -93.99,-24.26"
         style="fill:#f04154;fill-opacity:1;fill-rule:nonzero;stroke:none"
         id="path222" /><path
         d="m 8494.02,3047.2 c -3.81,0 -7.62,0.04 -11.45,0.13 l 1.01,41.8 c 104.53,-2.49 201.53,34.73 259.24,99.64 52.77,59.36 75.81,141 94.89,219.52 119.02,490.13 145.19,1009.17 75.67,1501.01 -19.59,138.66 -63.55,216.29 -134.39,237.34 l 11.9,40.08 c 88.16,-26.2 141.77,-115.03 163.89,-271.56 70.25,-497.04 43.81,-1021.51 -76.45,-1516.73 -20.32,-83.66 -45.1,-170.89 -104.26,-237.44 -64.59,-72.65 -166.18,-113.79 -280.05,-113.79"
         style="fill:#edecec;fill-opacity:1;fill-rule:nonzero;stroke:none"
         id="path224" /><path
         d="m 8496.57,3055.1 c -0.48,-2.84 -0.65,-5.75 -0.51,-8.69 l 8.54,-176.7 c 1.07,-22.13 19.94,-39.25 42.06,-38.18 22.13,1.07 39.26,19.95 38.18,42.06 l -8.54,176.7 c -1.07,22.12 -19.94,39.25 -42.06,38.18 -10.72,-0.52 -20.59,-5.18 -27.8,-13.12 -5.23,-5.77 -8.61,-12.76 -9.87,-20.25 z m 132.65,-197.68 c -6.54,-38.85 -39.44,-69.37 -80.36,-71.35 -47.19,-2.28 -87.43,34.26 -89.71,81.44 l -8.55,176.71 c -1.11,22.85 6.76,44.77 22.14,61.72 15.39,16.94 36.44,26.88 59.3,27.98 47.19,2.29 87.43,-34.25 89.71,-81.43 l 8.55,-176.7 c 0.3,-6.27 -0.08,-12.42 -1.08,-18.37"
         style="fill:#ead958;fill-opacity:1;fill-rule:nonzero;stroke:none"
         id="path226" /><path
         d="M 8475.61,4264.82 8274.77,3070.87 c -8.6,-51.08 -8.23,-103.27 1.07,-154.23 l 37,-202.58 c 12.73,-69.7 -1.34,-141.64 -39.38,-201.41 v 0 c -29.86,-46.91 -45.13,-101.61 -43.88,-157.2 l 11.35,-507.52 c 0.87,-38.88 29.24,-71.67 67.59,-78.12 l 338.11,-56.88 c 56.94,-9.58 105.65,41.19 93.72,97.69 l -171.64,812.99 -53.25,246.68 c -11.94,55.32 -13.25,112.41 -3.86,168.22 l 152.34,905.6 c 4.91,29.23 3.59,59.17 -3.9,87.85 l -23.59,90.37 c -7.49,28.68 -8.82,58.62 -3.9,87.85 l 318.61,1894 -161.56,27.18 -313.99,-1866.54"
         style="fill:#ac6f2b;fill-opacity:1;fill-rule:nonzero;stroke:none"
         id="path228" /><path
         d="m 8605.7,4127.5 23.59,-90.36 c 7.48,-28.68 8.81,-58.62 3.89,-87.85 l -152.34,-905.61 c -9.38,-55.81 -8.07,-112.9 3.87,-168.22 l 53.25,-246.68 171.64,-812.99 c 11.93,-56.49 -36.78,-107.26 -93.72,-97.69 l 30.75,-5.17 c 56.94,-9.58 105.65,41.19 93.72,97.69 l -171.64,812.99 -53.25,246.68 c -11.94,55.32 -13.25,112.41 -3.86,168.22 l 152.34,905.6 c 4.91,29.23 3.59,59.17 -3.9,87.85 l -23.59,90.37 c -7.49,28.68 -8.82,58.62 -3.9,87.85 l 318.61,1894 -30.76,5.17 -318.6,-1894 c -4.92,-29.23 -3.59,-59.17 3.9,-87.85"
         style="fill:#914e0a;fill-opacity:1;fill-rule:nonzero;stroke:none"
         id="path230" /><path
         d="m 8545.61,1766.84 -231.05,38.87 c -21.1,3.55 -36.76,21.65 -37.23,43.04 l -4.77,212.92 -36.55,6.14 4.92,-219.88 c 0.87,-38.89 29.24,-71.67 67.59,-78.12 l 231.05,-38.87 6.04,35.9"
         style="fill:#ead958;fill-opacity:1;fill-rule:nonzero;stroke:none"
         id="path232" /><path
         d="m 8790.83,5899.34 -39.16,6.58 -276.06,-1641.1 -200.84,-1193.95 c -8.6,-51.08 -8.23,-103.27 1.07,-154.23 l 6.9,-37.76 508.09,3020.46"
         style="fill:#a6886d;fill-opacity:1;fill-rule:nonzero;stroke:none"
         id="path234" /><path
         d="m 8751.67,5905.92 161.56,-27.17 37.93,225.43 -161.56,27.18 -37.93,-225.44"
         style="fill:#d3d2d2;fill-opacity:1;fill-rule:nonzero;stroke:none"
         id="path236" /><path
         d="m 8751.67,5905.92 39.17,-6.58 37.92,225.43 -39.16,6.59 -37.93,-225.44"
         style="fill:#edecec;fill-opacity:1;fill-rule:nonzero;stroke:none"
         id="path238" /><path
         d="m 8860.61,5887.6 52.62,-8.85 37.93,225.43 -52.63,8.85 -37.92,-225.43"
         style="fill:#989696;fill-opacity:1;fill-rule:nonzero;stroke:none"
         id="path240" /><path
         d="m 8294.58,3188.67 58.3,346.59 c 10.95,65.06 72.56,108.93 137.63,97.99 v 0 c 65.06,-10.95 108.93,-72.56 97.98,-137.62 l -58.3,-346.59 c -10.94,-65.06 -72.56,-108.93 -137.62,-97.99 v 0 c -65.06,10.95 -108.93,72.56 -97.99,137.62"
         style="fill:#7c6450;fill-opacity:1;fill-rule:nonzero;stroke:none"
         id="path242" /><path
         d="m 8318.99,3094.4 87.81,521.96 c -27.66,-17.52 -48.06,-46.27 -53.92,-81.1 l -58.3,-346.59 c -5.86,-34.83 4.01,-68.67 24.41,-94.27"
         style="fill:#725c49;fill-opacity:1;fill-rule:nonzero;stroke:none"
         id="path244" /><path
         d="m 8486.09,3074.85 c 22.62,17.72 38.96,43.61 44.1,74.19 l 58.3,346.59 c 5.15,30.57 -1.82,60.38 -17.4,84.53 l -85,-505.31"
         style="fill:#5b4839;fill-opacity:1;fill-rule:nonzero;stroke:none"
         id="path246" /><path
         d="m 8556.52,4079.91 304.09,1807.69 52.62,-8.85 -304.08,-1807.69 c -2.45,-14.53 -16.21,-24.33 -30.74,-21.89 v 0 c -14.53,2.44 -24.33,16.21 -21.89,30.74"
         style="fill:#914e0a;fill-opacity:1;fill-rule:nonzero;stroke:none"
         id="path248" /><path
         d="m 8500.09,3539.34 -25.67,-152.58 c -2.29,-13.63 -15.2,-22.83 -28.83,-20.53 -13.64,2.29 -22.83,15.2 -20.53,28.83 l 25.66,152.59 c 2.3,13.63 15.21,22.82 28.84,20.53 13.63,-2.3 22.82,-15.21 20.53,-28.84"
         style="fill:#5b4839;fill-opacity:1;fill-rule:nonzero;stroke:none"
         id="path250" /><path
         d="m 8458.04,3440.27 c 27.27,-4.58 45.65,-30.4 41.06,-57.67 -4.58,-27.26 -30.4,-45.64 -57.66,-41.06 -27.27,4.59 -45.65,30.41 -41.07,57.67 4.59,27.27 30.41,45.65 57.67,41.06"
         style="fill:#5b4839;fill-opacity:1;fill-rule:nonzero;stroke:none"
         id="path252" /><path
         d="m 8474.42,3386.76 c -2.29,-13.63 -15.2,-22.83 -28.83,-20.53 l -114.55,19.26 c -35.88,6.04 -60.16,40.14 -54.12,76.02 l 14.25,84.74 c 0.89,5.32 -0.34,10.68 -3.47,15.08 l -30.66,43.06 c -8.01,11.25 -5.38,26.89 5.88,34.9 11.26,8.02 26.89,5.39 34.9,-5.87 l 30.66,-43.06 c 10.89,-15.29 15.17,-33.9 12.05,-52.42 l -14.25,-84.73 c -1.46,-8.66 4.41,-16.89 13.07,-18.35 l 114.54,-19.27 c 13.63,-2.29 22.83,-15.2 20.53,-28.83"
         style="fill:#5b4839;fill-opacity:1;fill-rule:nonzero;stroke:none"
         id="path254" /><path
         d="m 8601.75,5040.49 171.39,-28.83 44.29,263.29 -171.39,28.83 -44.29,-263.29"
         style="fill:#d3d2d2;fill-opacity:1;fill-rule:nonzero;stroke:none"
         id="path256" /><path
         d="m 8601.75,5040.49 42.82,-7.2 44.29,263.28 -42.82,7.21 -44.29,-263.29"
         style="fill:#edecec;fill-opacity:1;fill-rule:nonzero;stroke:none"
         id="path258" /><path
         d="m 8714.91,5021.46 58.23,-9.8 44.29,263.29 -58.23,9.79 -44.29,-263.28"
         style="fill:#989696;fill-opacity:1;fill-rule:nonzero;stroke:none"
         id="path260" /><path
         d="m 8379.55,4353.47 -62.63,3.16 c -43.56,2.2 -80.65,-31.32 -82.86,-74.88 l -14.2,-281.3 c -2.2,-43.56 31.32,-80.65 74.88,-82.85 l 62.63,-3.17 c 43.56,-2.2 80.65,31.33 82.85,74.89 l 14.21,281.3 c 2.2,43.56 -31.32,80.65 -74.88,82.85"
         style="fill:#f0c2a8;fill-opacity:1;fill-rule:nonzero;stroke:none"
         id="path262" /><path
         d="m 8291.95,3917.88 c 0.94,-0.08 1.85,-0.24 2.79,-0.28 l 62.63,-3.17 c 43.56,-2.2 80.65,31.33 82.85,74.89 l 14.21,281.3 c 2.2,43.56 -31.32,80.65 -74.88,82.85 l -47.78,2.41 c -0.78,-1.15 -1.59,-2.27 -2.32,-3.45 -3.7,-6 -6.85,-12.39 -9.35,-19.1 -3.77,-10.07 -6.09,-20.88 -6.72,-32.18 l -21.43,-383.27"
         style="fill:#d6a189;fill-opacity:1;fill-rule:nonzero;stroke:none"
         id="path264" /><path
         d="m 8334.28,4301.15 -25,-447.29 c -3.37,-60.26 42.75,-111.85 103.01,-115.21 l 242.08,-13.54 c 64.15,-3.58 119.06,45.52 122.65,109.67 l 24.21,433.2 c 3.59,64.16 -45.51,119.07 -109.66,122.66 l -242.08,13.53 c -60.26,3.37 -111.84,-42.75 -115.21,-103.02"
         style="fill:#f0c2a8;fill-opacity:1;fill-rule:nonzero;stroke:none"
         id="path266" /><path
         d="m 8437.96,3737.21 c -55.94,3.13 -98.56,54.51 -95.19,114.78 l 25,447.29 c 3.37,60.26 51.45,106.58 107.39,103.45 l -25.67,1.44 c -60.26,3.37 -111.84,-42.75 -115.21,-103.02 l -25,-447.29 c -3.37,-60.26 42.75,-111.85 103.01,-115.21 l 242.08,-13.54 v 0 l -216.41,12.1"
         style="fill:#f5dcd0;fill-opacity:1;fill-rule:nonzero;stroke:none"
         id="path268" /><path
         d="m 8691.57,4390.64 -242.08,13.53 c -0.19,0.01 -0.38,-0.01 -0.57,0 l 133.65,-7.47 c 64.15,-3.58 113.25,-58.5 109.67,-122.65 v 0 c -0.88,-15.69 -14.31,-27.7 -29.99,-26.83 l -258.74,14.4 c -9,0.5 -17.55,-5.52 -18.95,-14.42 -1.6,-10.23 5.97,-19.36 16.05,-19.92 l 259.7,-14.44 c 15.69,-0.88 27.71,-14.31 26.83,-30 l -2,-35.78 c -0.88,-15.68 -14.3,-27.69 -29.99,-26.82 l -258.71,14.39 c -8.99,0.5 -17.55,-5.51 -18.94,-14.41 -1.6,-10.24 5.97,-19.36 16.05,-19.92 l 259.66,-14.45 c 15.69,-0.87 27.71,-14.3 26.83,-30 l -2,-35.77 c -0.88,-15.69 -14.3,-27.69 -29.99,-26.82 l -258.67,14.39 c -9,0.5 -17.55,-5.52 -18.95,-14.42 -1.6,-10.23 5.97,-19.36 16.05,-19.92 l 259.63,-14.44 c 15.7,-0.87 27.71,-14.31 26.83,-30 l -2,-35.77 c -0.87,-15.69 -14.3,-27.7 -29.99,-26.82 l -258.63,14.38 c -9,0.5 -17.56,-5.51 -18.95,-14.41 -1.6,-10.24 5.97,-19.36 16.05,-19.92 l 250.42,-13.93 c 20.74,-1.16 33.7,-23.66 23.56,-41.79 -20.92,-37.42 -61.8,-61.76 -107.45,-59.44 l 108.42,-6.06 c 64.15,-3.58 119.06,45.52 122.65,109.67 l 24.21,433.21 c 3.59,64.15 -45.51,119.06 -109.66,122.65"
         style="fill:#d6a189;fill-opacity:1;fill-rule:nonzero;stroke:none"
         id="path270" /><path
         d="m 7899.98,3981.24 -32.8,-24.53 -1511.69,2022.03 77.13,57.66 c 45.21,33.8 109.26,24.54 143.06,-20.67 L 7931.84,4201.75 c 52.1,-69.69 37.83,-168.42 -31.86,-220.51"
         style="fill:#fbfbfb;fill-opacity:1;fill-rule:nonzero;stroke:none"
         id="path272" /><path
         d="m 6575.68,6015.73 c -31.9,42.68 -90.74,53.27 -135.26,25.91 L 7943.43,4031.21 c 29.01,52.54 26.68,119.35 -11.59,170.54 L 6575.68,6015.73"
         style="fill:#e7e6ed;fill-opacity:1;fill-rule:nonzero;stroke:none"
         id="path274" /><path
         d="m 9108.45,1746.49 c -228,0 -412.83,-58.63 -412.83,-130.94 0,-72.32 184.83,-130.95 412.83,-130.95 228.01,0 412.84,58.63 412.84,130.95 0,72.31 -184.83,130.94 -412.84,130.94"
         style="fill:#fde4bf;fill-opacity:1;fill-rule:nonzero;stroke:none"
         id="path276" /><path
         d="m 9442.4,1692.5 c 2.77,-6.13 4.28,-12.39 4.28,-18.76 0,-72.32 -184.83,-130.94 -412.84,-130.94 -137.31,0 -258.89,21.28 -333.94,53.99 28.69,-63.43 200.63,-112.19 408.55,-112.19 228.01,0 412.84,58.63 412.84,130.95 0,28.76 -29.32,55.34 -78.89,76.95"
         style="fill:#fbc577;fill-opacity:1;fill-rule:nonzero;stroke:none"
         id="path278" /><path
         d="m 10280,1508 c -170.4,0 -308.46,-44.09 -308.46,-98.48 0,-54.39 138.06,-98.48 308.46,-98.48 170.4,0 308.5,44.09 308.5,98.48 0,54.39 -138.1,98.48 -308.5,98.48"
         style="fill:#fde4bf;fill-opacity:1;fill-rule:nonzero;stroke:none"
         id="path280" /><path
         d="m 10529.5,1467.4 c 2.1,-4.61 3.2,-9.32 3.2,-14.11 0,-54.39 -138.1,-98.48 -308.4,-98.48 -102.6,0 -193.5,16 -249.56,40.61 21.44,-47.71 149.96,-84.38 305.26,-84.38 170.4,0 308.5,44.09 308.5,98.48 0,21.63 -21.9,41.63 -59,57.88"
         style="fill:#fbc577;fill-opacity:1;fill-rule:nonzero;stroke:none"
         id="path282" /><path
         d="m 9192.5,1857.58 c -162.83,0 -294.83,-41.87 -294.83,-93.51 0,-51.65 132,-93.51 294.83,-93.51 162.83,0 294.82,41.86 294.82,93.51 0,51.64 -131.99,93.51 -294.82,93.51"
         style="fill:#fde4bf;fill-opacity:1;fill-rule:nonzero;stroke:none"
         id="path284" /><path
         d="m 9430.98,1819.02 c 1.98,-4.37 3.06,-8.84 3.06,-13.39 0,-51.65 -132,-93.51 -294.82,-93.51 -98.06,0 -184.89,15.2 -238.49,38.56 20.49,-45.3 143.28,-80.12 291.77,-80.12 162.83,0 294.82,41.86 294.82,93.51 0,20.54 -20.93,39.52 -56.34,54.95"
         style="fill:#fbc577;fill-opacity:1;fill-rule:nonzero;stroke:none"
         id="path286" /><path
         d="m 6363.87,1417.11 c -164.73,0 -298.26,-32.71 -298.26,-73.06 0,-40.35 133.53,-73.06 298.26,-73.06 164.72,0 298.26,32.71 298.26,73.06 0,40.35 -133.54,73.06 -298.26,73.06"
         style="fill:#fde4bf;fill-opacity:1;fill-rule:nonzero;stroke:none"
         id="path288" /><path
         d="m 6605.13,1386.98 c 2.01,-3.42 3.1,-6.91 3.1,-10.46 0,-40.35 -133.54,-73.06 -298.26,-73.06 -99.21,0 -187.05,11.87 -241.27,30.12 20.73,-35.39 144.95,-62.59 295.17,-62.59 164.72,0 298.26,32.71 298.26,73.06 0,16.05 -21.18,30.88 -57,42.93"
         style="fill:#fbc577;fill-opacity:1;fill-rule:nonzero;stroke:none"
         id="path290" /><path
         d="m 5012.39,1524.19 c -164.72,0 -298.26,-32.71 -298.26,-73.06 0,-40.35 133.54,-73.06 298.26,-73.06 164.73,0 298.26,32.71 298.26,73.06 0,40.35 -133.53,73.06 -298.26,73.06"
         style="fill:#fde4bf;fill-opacity:1;fill-rule:nonzero;stroke:none"
         id="path292" /><path
         d="m 5253.66,1494.07 c 2,-3.42 3.09,-6.91 3.09,-10.46 0,-40.35 -133.54,-73.06 -298.26,-73.06 -99.2,0 -187.04,11.87 -241.27,30.12 20.73,-35.39 144.96,-62.6 295.17,-62.6 164.73,0 298.26,32.71 298.26,73.06 0,16.05 -21.18,30.88 -56.99,42.94"
         style="fill:#fbc577;fill-opacity:1;fill-rule:nonzero;stroke:none"
         id="path294" /><path
         d="m 5235.48,1461.29 c -164.72,0 -298.26,-32.71 -298.26,-73.06 0,-40.35 133.54,-73.06 298.26,-73.06 164.73,0 298.27,32.71 298.27,73.06 0,40.35 -133.54,73.06 -298.27,73.06"
         style="fill:#fde4bf;fill-opacity:1;fill-rule:nonzero;stroke:none"
         id="path296" /><path
         d="m 5476.75,1431.16 c 2,-3.42 3.09,-6.91 3.09,-10.46 0,-40.35 -133.53,-73.06 -298.26,-73.06 -99.2,0 -187.04,11.87 -241.27,30.12 20.73,-35.39 144.96,-62.59 295.17,-62.59 164.73,0 298.27,32.71 298.27,73.06 0,16.05 -21.19,30.88 -57,42.93"
         style="fill:#fbc577;fill-opacity:1;fill-rule:nonzero;stroke:none"
         id="path298" /><path
         d="m 6128.65,1548.05 c -125.89,0 -227.94,-58.62 -227.94,-130.94 0,-72.32 102.05,-130.95 227.94,-130.95 125.89,0 227.94,58.63 227.94,130.95 0,72.32 -102.05,130.94 -227.94,130.94"
         style="fill:#fde4bf;fill-opacity:1;fill-rule:nonzero;stroke:none"
         id="path300" /><path
         d="m 6313.04,1494.06 c 1.53,-6.13 2.36,-12.38 2.36,-18.75 0,-72.32 -102.05,-130.95 -227.94,-130.95 -75.82,0 -142.94,21.28 -184.38,53.99 15.84,-63.43 110.77,-112.19 225.57,-112.19 125.89,0 227.94,58.63 227.94,130.95 0,28.76 -16.18,55.34 -43.55,76.95"
         style="fill:#fbc577;fill-opacity:1;fill-rule:nonzero;stroke:none"
         id="path302" /><path
         d="m 9858.45,1561.99 c -151.95,0 -275.13,-64.67 -275.13,-144.44 0,-79.77 123.18,-144.44 275.13,-144.44 151.95,0 275.15,64.67 275.15,144.44 0,79.77 -123.2,144.44 -275.15,144.44"
         style="fill:#fde4bf;fill-opacity:1;fill-rule:nonzero;stroke:none"
         id="path304" /><path
         d="m 10081,1502.44 c 1.9,-6.76 2.9,-13.66 2.9,-20.69 0,-79.77 -123.22,-144.44 -275.17,-144.44 -91.51,0 -172.54,23.47 -222.55,59.55 19.12,-69.96 133.71,-123.75 272.27,-123.75 151.95,0 275.15,64.67 275.15,144.44 0,31.73 -19.6,61.05 -52.6,84.89"
         style="fill:#fbc577;fill-opacity:1;fill-rule:nonzero;stroke:none"
         id="path306" /><path
         d="m 8951.16,1548.5 c -228.01,0 -412.84,-58.63 -412.84,-130.95 0,-72.32 184.83,-130.94 412.84,-130.94 228,0 412.83,58.62 412.83,130.94 0,72.32 -184.83,130.95 -412.83,130.95"
         style="fill:#fde4bf;fill-opacity:1;fill-rule:nonzero;stroke:none"
         id="path308" /><path
         d="m 9285.1,1494.5 c 2.77,-6.12 4.28,-12.38 4.28,-18.75 0,-72.32 -184.83,-130.94 -412.83,-130.94 -137.32,0 -258.89,21.28 -333.95,53.99 28.69,-63.43 200.64,-112.19 408.56,-112.19 228,0 412.83,58.62 412.83,130.94 0,28.77 -29.32,55.35 -78.89,76.95"
         style="fill:#fbc577;fill-opacity:1;fill-rule:nonzero;stroke:none"
         id="path310" /></g></g></svg>
